<mxfile host="app.diagrams.net" modified="2024-02-17T01:28:12.465Z" agent="Mozilla/5.0 (Windows NT 10.0; Win64; x64) AppleWebKit/537.36 (KHTML, like Gecko) Chrome/120.0.0.0 Safari/537.36" etag="6UhFJzXv8n1j1_ZJ3JYt" version="23.1.3" type="device">
  <diagram name="Page-1" id="hC9B8-TWWnsao4EvV9jq">
    <mxGraphModel dx="2390" dy="1263" grid="1" gridSize="10" guides="1" tooltips="1" connect="1" arrows="1" fold="1" page="1" pageScale="1" pageWidth="850" pageHeight="1100" math="0" shadow="0">
      <root>
        <mxCell id="0" />
        <mxCell id="1" parent="0" />
        <mxCell id="fjf50l-mTHEGBoY5BxzV-1" value="&lt;font style=&quot;font-size: 20px;&quot;&gt;Company Logo, Name, Home page, About Us, Trips, Contact Us&lt;/font&gt;" style="rounded=0;whiteSpace=wrap;html=1;" vertex="1" parent="1">
          <mxGeometry x="30" y="20" width="790" height="60" as="geometry" />
        </mxCell>
        <mxCell id="fjf50l-mTHEGBoY5BxzV-2" value="&lt;font style=&quot;font-size: 19px;&quot;&gt;Footer content including Social Media Icons/Links&lt;/font&gt;" style="rounded=0;whiteSpace=wrap;html=1;" vertex="1" parent="1">
          <mxGeometry x="30" y="1020" width="790" height="60" as="geometry" />
        </mxCell>
        <mxCell id="fjf50l-mTHEGBoY5BxzV-3" value="" style="shape=image;html=1;verticalAlign=top;verticalLabelPosition=bottom;labelBackgroundColor=#ffffff;imageAspect=0;aspect=fixed;image=https://cdn2.iconfinder.com/data/icons/social-networks-7/128/Social_networks_Twitter-128.png" vertex="1" parent="1">
          <mxGeometry x="650" y="1031" width="38" height="38" as="geometry" />
        </mxCell>
        <mxCell id="fjf50l-mTHEGBoY5BxzV-4" value="" style="shape=image;html=1;verticalAlign=top;verticalLabelPosition=bottom;labelBackgroundColor=#ffffff;imageAspect=0;aspect=fixed;image=https://cdn2.iconfinder.com/data/icons/social-networks-7/128/Social_networks_Instagram-128.png" vertex="1" parent="1">
          <mxGeometry x="710" y="1031" width="38" height="38" as="geometry" />
        </mxCell>
        <mxCell id="fjf50l-mTHEGBoY5BxzV-5" value="" style="shape=image;html=1;verticalAlign=top;verticalLabelPosition=bottom;labelBackgroundColor=#ffffff;imageAspect=0;aspect=fixed;image=https://cdn3.iconfinder.com/data/icons/2018-social-media-logotypes/1000/2018_social_media_popular_app_logo_facebook-128.png" vertex="1" parent="1">
          <mxGeometry x="770" y="1031" width="38" height="38" as="geometry" />
        </mxCell>
        <mxCell id="fjf50l-mTHEGBoY5BxzV-6" value="&lt;font style=&quot;font-size: 32px;&quot;&gt;Full-width image that includes a heading message&lt;/font&gt;" style="rounded=0;whiteSpace=wrap;html=1;" vertex="1" parent="1">
          <mxGeometry x="30" y="100" width="790" height="490" as="geometry" />
        </mxCell>
        <mxCell id="fjf50l-mTHEGBoY5BxzV-7" value="&lt;font style=&quot;font-size: 27px;&quot;&gt;additional pics&lt;/font&gt;" style="whiteSpace=wrap;html=1;aspect=fixed;verticalAlign=top;" vertex="1" parent="1">
          <mxGeometry x="230" y="810" width="190" height="190" as="geometry" />
        </mxCell>
        <mxCell id="fjf50l-mTHEGBoY5BxzV-8" value="&lt;font style=&quot;font-size: 27px;&quot;&gt;Call to action with link compelling visitors to visit the trips page&lt;/font&gt;" style="whiteSpace=wrap;html=1;aspect=fixed;" vertex="1" parent="1">
          <mxGeometry x="430" y="610" width="390" height="390" as="geometry" />
        </mxCell>
        <mxCell id="fjf50l-mTHEGBoY5BxzV-9" value="&lt;font style=&quot;font-size: 27px;&quot;&gt;additional pics&lt;/font&gt;" style="whiteSpace=wrap;html=1;aspect=fixed;verticalAlign=top;" vertex="1" parent="1">
          <mxGeometry x="30" y="810" width="190" height="190" as="geometry" />
        </mxCell>
        <mxCell id="fjf50l-mTHEGBoY5BxzV-10" value="&lt;font style=&quot;font-size: 18px;&quot;&gt;Newsletter sign up form with name and email&lt;/font&gt;" style="rounded=0;whiteSpace=wrap;html=1;verticalAlign=top;" vertex="1" parent="1">
          <mxGeometry x="30" y="610" width="390" height="180" as="geometry" />
        </mxCell>
        <mxCell id="fjf50l-mTHEGBoY5BxzV-11" value="NAME" style="rounded=0;whiteSpace=wrap;html=1;" vertex="1" parent="1">
          <mxGeometry x="190" y="670" width="140" height="20" as="geometry" />
        </mxCell>
        <mxCell id="fjf50l-mTHEGBoY5BxzV-12" value="EMAIL" style="rounded=0;whiteSpace=wrap;html=1;" vertex="1" parent="1">
          <mxGeometry x="190" y="700" width="140" height="20" as="geometry" />
        </mxCell>
        <mxCell id="fjf50l-mTHEGBoY5BxzV-14" value="SUBSCRIBE" style="rounded=1;whiteSpace=wrap;html=1;" vertex="1" parent="1">
          <mxGeometry x="170" y="740" width="170" height="30" as="geometry" />
        </mxCell>
        <mxCell id="fjf50l-mTHEGBoY5BxzV-15" value="" style="shape=image;html=1;verticalAlign=top;verticalLabelPosition=bottom;labelBackgroundColor=#ffffff;imageAspect=0;aspect=fixed;image=https://cdn4.iconfinder.com/data/icons/ionicons/512/icon-image-128.png" vertex="1" parent="1">
          <mxGeometry x="310" y="110" width="220" height="220" as="geometry" />
        </mxCell>
        <mxCell id="fjf50l-mTHEGBoY5BxzV-16" value="" style="shape=image;html=1;verticalAlign=top;verticalLabelPosition=bottom;labelBackgroundColor=#ffffff;imageAspect=0;aspect=fixed;image=https://cdn4.iconfinder.com/data/icons/ionicons/512/icon-image-128.png" vertex="1" parent="1">
          <mxGeometry x="62" y="850" width="128" height="128" as="geometry" />
        </mxCell>
        <mxCell id="fjf50l-mTHEGBoY5BxzV-17" value="" style="shape=image;html=1;verticalAlign=top;verticalLabelPosition=bottom;labelBackgroundColor=#ffffff;imageAspect=0;aspect=fixed;image=https://cdn4.iconfinder.com/data/icons/ionicons/512/icon-image-128.png" vertex="1" parent="1">
          <mxGeometry x="261" y="850" width="128" height="128" as="geometry" />
        </mxCell>
      </root>
    </mxGraphModel>
  </diagram>
</mxfile>
